inDegrees=yes
name=ik_data_2024_11_07_18_01
DataType=double
version=3
OpenSimVersion=4.5.1
endheader
time	pelvis_tilt	pelvis_list	pelvis_rotation	pelvis_tx	pelvis_ty	pelvis_tz	hip_flexion_r	hip_adduction_r	hip_rotation_r	knee_angle_r	knee_angle_r_beta	ankle_angle_r	subtalar_angle_r	mtp_angle_r	hip_flexion_l	hip_adduction_l	hip_rotation_l	knee_angle_l	knee_angle_l_beta	ankle_angle_l	subtalar_angle_l	mtp_angle_l	lumbar_extension	lumbar_bending	lumbar_rotation	arm_flex_r	arm_add_r	arm_rot_r	elbow_flex_r	pro_sup_r	wrist_flex_r	wrist_dev_r	arm_flex_l	arm_add_l	arm_rot_l	elbow_flex_l	pro_sup_l	wrist_flex_l	wrist_dev_l
4.9988	-4.33609997325552	-0.03625395548507369	14.19799625073876	0	0.9399999999999999	0	13.03814192340623	-1.504102154579057	-0.6967813966021605	8.730446634134257	0.1523750389352996	-4.070506710478615	0	0	4.479442635163098	1.014261621383959	-0.4229434601865261	0.4998282133840319	0.008723648017912145	-4.070506710478615	0	0	0	0	0	0	-2.520936944008628	0	55.31134362369708	48.54340944395427	0	0	0	-2.520936944008628	0	55.31134362369708	48.54340944395427	0	0
5.0484	-4.287113054564949	-0.2362340571705006	12.78731681246501	0	0.9399999999999999	0	15.17326252595177	-1.496507746918133	0.2972060124791787	11.86542284361648	0.2070906957624559	-4.082618470034417	0	0	4.492932393087381	0.6981046492016268	-1.834905160278164	0.5124623223707302	0.008944154817785835	-4.082618470034417	0	0	0	0	0	0	-2.539692907046887	0	55.37240217564015	48.51509001635499	0	0	0	-2.539692907046887	0	55.37240217564015	48.51509001635499	0	0
5.11336	-4.462173541501225	-0.395935185543791	11.60662034068286	0	0.9399999999999999	0	17.43580450168724	-1.371953021511317	1.072319363081279	15.39728832090384	0.2687333770786413	-4.093662658064762	0	0	4.712064122032528	0.4906354865435046	-2.98485357702891	0.5093644743788389	0.008890087170601038	-4.093662658064762	0	0	0	0	0	0	-2.557142760608178	0	55.42894568361513	48.48907557160374	0	0	0	-2.557142760608178	0	55.42894568361513	48.48907557160374	0	0
5.16571	-4.584302978436085	-0.577092047396026	10.34202955366473	0	0.9399999999999999	0	20.04797122160416	-1.268174285214369	1.855109979743541	19.99580371016861	0.3489926113249402	-4.148083262488796	0	0	4.878135179996565	0.2211474720769753	-4.244664492308642	0.5219583047421725	0.009109890975878844	-4.148083262488796	0	0	0	0	0	0	-2.755090499436386	0	55.94480065694707	48.32229267791649	0	0	0	-2.755090499436386	0	55.94480065694707	48.32229267791649	0	0
5.17798	-4.53853791241116	-0.6121937399432819	9.996573920275523	0	0.9399999999999999	0	22.50804549795726	-1.636526343191978	1.898730442645792	24.67191130905959	0.4306060851031142	-4.226188451433418	0	0	4.840006686592143	0.1554904598472066	-4.576641930194803	0.5130211653805427	0.008953908468308817	-4.226188451433418	0	0	0	0	0	0	-3.018091774079846	0	56.64083131147166	48.09093713593525	0	0	0	-3.018091774079846	0	56.64083131147166	48.09093713593525	0	0
5.22998	-4.274932087372799	-0.4559035398267798	11.00368230497024	0	0.9399999999999999	0	24.99294118695271	-2.818944471229418	0.8715810323699933	30.25831624713725	0.5281072446222392	-4.305625819592207	0	0	4.547634231404542	0.3451056712141156	-3.585699152992302	0.5176996206275027	0.009035562916275474	-4.305625819592207	0	0	0	0	0	0	-3.318521397197324	0	57.41404811810911	47.84692041964158	0	0	0	-3.318521397197324	0	57.41404811810911	47.84692041964158	0	0
5.29759	-3.895960030060821	-0.8096221015203047	8.58708327664011	0	0.9399999999999999	0	27.84404644495115	-2.150785106989915	2.823141143593576	36.32388559736192	0.6339714007917129	-4.348225084250458	0	0	4.23474618319298	-0.2539717234546613	-5.964531112287675	0.5133509968303219	0.008959665113084091	-4.348225084250458	0	0	0	0	0	0	-3.484245187873574	0	57.83185333289063	47.71616486066207	0	0	0	-3.484245187873574	0	57.83185333289063	47.71616486066207	0	0
5.35095	-3.797025027016159	-0.9412505516193611	7.591537457359887	0	0.9399999999999999	0	31.35872956071253	-2.76109433098482	4.022461692100233	42.30631317707458	0.7383844593198142	-4.357601051628467	0	0	4.145660358356118	-0.4710312351034051	-6.945215306821641	0.5064113409458115	0.008838545268943987	-4.357601051628467	0	0	0	0	0	0	-3.503345618131011	0	57.88969935260928	47.69224374198449	0	0	0	-3.503345618131011	0	57.88969935260928	47.69224374198449	0	0
